:FULLY-SPECIFIED
:FORCE-ALL-JOINTS-BE-3DOF
:DEGREES
211
root 8.3886 16.5408 -7.78733 7.63287 0.684387 -4.39111
lfemur -44.1959 1.5418 -16.3252
ltibia 24.4435 -0 0
lfoot -15.0848 10.893 -0.046436
ltoes -15.7894 0 0
rfemur 4.54342 4.56478 30.021
rtibia 12.4132 -0 0
rfoot -15.7295 4.91042 0.00438971
rtoes -9.44199 0 0
lowerback -6.20367 2.23149 2.09635
upperback -0.847435 2.73989 3.28585
thorax 2.52741 1.3761 2.43222
lowerneck -16.4596 -6.59692 -14.4425
upperneck 15.0034 -8.3807 15.0553
head 8.67446 -3.41597 6.47492
lclavicle -1.94623e-14 -5.56597e-15 0
lhumerus -49.5941 -9.54304 95.3432
lradius 26.976 -0 0
lwrist 7.98733 0 0
lhand -12.2298 -24.0983 -0.0198523
lfingers 7.12502 -0 0
lthumb 13.8363 5.43299 -0.0154227
rclavicle -1.94623e-14 -5.56597e-15 0
rhumerus -36.1838 10.9766 -81.4958
rradius 52.1341 -0 0
rwrist -27.0125 0 0
rhand -33.0922 -28.6384 0.013554
rfingers 7.12502 -0 0
rthumb -6.30312 -58.5242 0.0130318
212
root 8.41546 16.5357 -7.6238 7.69731 0.465021 -4.36825
lfemur -44.5203 1.68999 -16.4741
ltibia 24.6599 -0 0
lfoot -15.0193 10.7566 -0.0570081
ltoes -15.4632 0 0
rfemur 5.0101 4.48588 29.8607
rtibia 12.6502 -0 0
rfoot -15.1119 4.9874 0.00216578
rtoes -9.5116 0 0
lowerback -6.22086 2.2696 2.06133
upperback -0.898328 2.79442 3.24987
thorax 2.48069 1.40366 2.41727
lowerneck -16.4793 -6.58184 -14.4376
upperneck 15.0458 -8.36336 15.0568
head 8.689 -3.4064 6.47826
lclavicle -1.94623e-14 -5.56597e-15 0
lhumerus -49.6182 -9.37968 95.1662
lradius 26.8082 -0 0
lwrist 7.64942 0 0
lhand -12.1792 -24.0978 -0.0218113
lfingers 7.12502 -0 0
lthumb 13.8851 5.43115 -0.016983
rclavicle -1.94623e-14 -5.56597e-15 0
rhumerus -36.3565 10.9396 -81.6266
rradius 52 -0 0
rwrist -26.9539 0 0
rhand -33.0379 -28.5216 0.0173074
rfingers 7.12502 -0 0
rthumb -6.25071 -58.4086 0.0166227
213
root 8.44232 16.5307 -7.46027 7.76628 0.241111 -4.34076
lfemur -44.8266 1.85745 -16.6327
ltibia 24.9356 -0 0
lfoot -14.9259 10.6141 -0.0676592
ltoes -15.1116 0 0
rfemur 5.47459 4.40058 29.6819
rtibia 12.9221 -0 0
rfoot -14.4451 5.06721 -0.00137354
rtoes -9.59113 0 0
lowerback -6.23736 2.30617 2.02173
upperback -0.954124 2.84738 3.21162
thorax 2.42845 1.43045 2.40243
lowerneck -16.5025 -6.56688 -14.433
upperneck 15.0894 -8.34586 15.0587
head 8.70457 -3.39661 6.48174
lclavicle -1.94623e-14 -5.56597e-15 0
lhumerus -49.6444 -9.20696 94.9798
lradius 26.628 -0 0
lwrist 7.28272 0 0
lhand -12.1092 -24.0898 -0.0231756
lfingers 7.12502 -0 0
lthumb 13.9527 5.43497 -0.0180897
rclavicle -1.94623e-14 -5.56597e-15 0
rhumerus -36.5521 10.8981 -81.7668
rradius 51.8349 -0 0
rwrist -26.881 0 0
rhand -32.9738 -28.3948 0.02126
rfingers 7.12502 -0 0
rthumb -6.18881 -58.2831 0.0204006
214
root 8.46918 16.5256 -7.29675 7.83935 0.0132419 -4.30882
lfemur -45.1148 2.04276 -16.8005
ltibia 25.2666 -0 0
lfoot -14.8064 10.466 -0.0782387
ltoes -14.7366 0 0
rfemur 5.93558 4.30966 29.4854
rtibia 13.2274 -0 0
rfoot -13.7329 5.14919 -0.0063196
rtoes -9.68019 0 0
lowerback -6.25317 2.3411 1.97773
upperback -1.01445 2.89864 3.17124
thorax 2.37111 1.45641 2.38773
lowerneck -16.5292 -6.55201 -14.4286
upperneck 15.1344 -8.32816 15.0606
head 8.72114 -3.38657 6.48532
lclavicle -1.94623e-14 -5.56597e-15 0
lhumerus -49.672 -9.02592 94.7847
lradius 26.4361 -0 0
lwrist 6.88934 0 0
lhand -12.0209 -24.075 -0.023993
lfingers 7.12502 -0 0
lthumb 14.0377 5.44413 -0.0187778
rclavicle -1.94623e-14 -5.56597e-15 0
rhumerus -36.769 10.8522 -81.9156
rradius 51.6406 -0 0
rwrist -26.7946 0 0
rhand -32.9004 -28.2586 0.0253434
rfingers 7.12502 -0 0
rthumb -6.11798 -58.1483 0.0243005
215
root 8.49604 16.5206 -7.13322 7.91607 -0.218003 -4.27263
lfemur -45.3847 2.24454 -16.9772
ltibia 25.6493 -0 0
lfoot -14.6627 10.3128 -0.0885992
ltoes -14.3398 0 0
rfemur 6.39175 4.21387 29.2722
rtibia 13.5642 -0 0
rfoot -12.9793 5.23268 -0.0127421
rtoes -9.77839 0 0
lowerback -6.26831 2.37431 1.92954
upperback -1.07893 2.94805 3.1289
thorax 2.30906 1.48147 2.37323
lowerneck -16.5591 -6.53717 -14.4243
upperneck 15.1808 -8.31023 15.0627
head 8.7387 -3.37629 6.48896
lclavicle -1.94623e-14 -5.56597e-15 0
lhumerus -49.7002 -8.83759 94.5816
lradius 26.2337 -0 0
lwrist 6.47138 0 0
lhand -11.9158 -24.0536 -0.0243165
lfingers 7.12502 -0 0
lthumb 14.139 5.45829 -0.0190859
rclavicle -1.94623e-14 -5.56597e-15 0
rhumerus -37.0059 10.8021 -82.0724
rradius 51.4187 -0 0
rwrist -26.6956 0 0
rhand -32.8184 -28.1134 0.0294892
rfingers 7.12502 -0 0
rthumb -6.0388 -58.0049 0.0282573
216
root 8.5229 16.5155 -6.96969 7.996 -0.45204 -4.23239
lfemur -45.6363 2.46141 -17.1622
ltibia 26.0796 -0 0
lfoot -14.4965 10.1548 -0.0985982
ltoes -13.923 0 0
rfemur 6.84175 4.1139 29.0431
rtibia 13.9309 -0 0
rfoot -12.1882 5.317 -0.020686
rtoes -9.88532 0 0
lowerback -6.28278 2.40573 1.87734
upperback -1.14719 2.99547 3.08477
thorax 2.24271 1.50554 2.35899
lowerneck -16.5922 -6.52235 -14.4202
upperneck 15.2286 -8.29202 15.0647
head 8.75722 -3.36576 6.49263
lclavicle -1.94623e-14 -5.56597e-15 0
lhumerus -49.7282 -8.64299 94.3712
lradius 26.0216 -0 0
lwrist 6.03095 0 0
lhand -11.7951 -24.0262 -0.0242022
lfingers 7.12502 -0 0
lthumb 14.2553 5.47713 -0.0190555
rclavicle -1.94623e-14 -5.56597e-15 0
rhumerus -37.2614 10.7479 -82.2362
rradius 51.1712 -0 0
rwrist -26.5847 0 0
rhand -32.7284 -27.9601 0.0336292
rfingers 7.12502 -0 0
rthumb -5.95183 -57.8534 0.0322063
217
root 8.54976 16.5104 -6.80616 8.07869 -0.688283 -4.18828
lfemur -45.8695 2.692 -17.3552
ltibia 26.5538 -0 0
lfoot -14.3097 9.99261 -0.1081
ltoes -13.4879 0 0
rfemur 7.28427 4.01046 28.7993
rtibia 14.3258 -0 0
rfoot -11.3635 5.40148 -0.0301687
rtoes -10.0006 0 0
lowerback -6.29657 2.43527 1.82132
upperback -1.21885 3.04076 3.03899
thorax 2.17249 1.52857 2.34504
lowerneck -16.6283 -6.50749 -14.4161
upperneck 15.2777 -8.2735 15.0666
head 8.77666 -3.35496 6.4963
lclavicle -1.94623e-14 -5.56597e-15 0
lhumerus -49.7552 -8.44313 94.1543
lradius 25.8008 -0 0
lwrist 5.57014 0 0
lhand -11.6601 -23.9932 -0.0237087
lfingers 7.12502 -0 0
lthumb 14.3854 5.50031 -0.0187298
rclavicle -1.94623e-14 -5.56597e-15 0
rhumerus -37.5341 10.6896 -82.4064
rradius 50.8999 -0 0
rwrist -26.4629 0 0
rhand -32.6308 -27.7992 0.0376968
rfingers 7.12502 -0 0
rthumb -5.85764 -57.6944 0.0360842
218
root 8.57662 16.5054 -6.64264 8.16372 -0.92615 -4.14049
lfemur -46.0843 2.93496 -17.5556
ltibia 27.068 -0 0
lfoot -14.1041 9.82653 -0.116976
ltoes -13.0363 0 0
rfemur 7.71797 3.90419 28.5415
rtibia 14.7472 -0 0
rfoot -10.5092 5.48544 -0.0411778
rtoes -10.1238 0 0
lowerback -6.30969 2.46286 1.76169
upperback -1.29355 3.08378 2.99174
thorax 2.0988 1.55048 2.33146
lowerneck -16.6673 -6.49257 -14.4119
upperneck 15.3283 -8.25464 15.0682
head 8.79702 -3.3439 6.49993
lclavicle -1.94623e-14 -5.56597e-15 0
lhumerus -49.7805 -8.23902 93.9314
lradius 25.5724 -0 0
lwrist 5.09105 0 0
lhand -11.512 -23.9551 -0.0228952
lfingers 7.12502 -0 0
lthumb 14.5279 5.5275 -0.0181525
rclavicle -1.94623e-14 -5.56597e-15 0
rhumerus -37.8224 10.6275 -82.5821
rradius 50.6064 -0 0
rwrist -26.3309 0 0
rhand -32.5264 -27.6313 0.0416278
rfingers 7.12502 -0 0
rthumb -5.7568 -57.5287 0.0398299
219
root 8.60349 16.5003 -6.47911 8.25063 -1.16505 -4.08919
lfemur -46.2806 3.18895 -17.763
ltibia 27.6183 -0 0
lfoot -13.8814 9.65704 -0.125109
ltoes -12.57 0 0
rfemur 8.14152 3.7957 28.2708
rtibia 15.1933 -0 0
rfoot -9.62913 5.56823 -0.0536695
rtoes -10.2546 0 0
lowerback -6.32214 2.4884 1.69863
upperback -1.3709 3.1244 2.94318
thorax 2.02205 1.5712 2.31829
lowerneck -16.709 -6.47753 -14.4076
upperneck 15.3803 -8.23538 15.0696
head 8.81827 -3.33257 6.50348
lclavicle -1.94623e-14 -5.56597e-15 0
lhumerus -49.8033 -8.03166 93.7035
lradius 25.3372 -0 0
lwrist 4.5958 0 0
lhand -11.3523 -23.9122 -0.0218207
lfingers 7.12502 -0 0
lthumb 14.6818 5.55837 -0.0173677
rclavicle -1.94623e-14 -5.56597e-15 0
rhumerus -38.1251 10.5616 -82.7626
rradius 50.2927 -0 0
rwrist -26.1898 0 0
rhand -32.4156 -27.457 0.0453608
rfingers 7.12502 -0 0
rthumb -5.64987 -57.3566 0.0433853
220
root 8.63035 16.4952 -6.31558 8.33901 -1.40441 -4.03456
lfemur -46.4581 3.45264 -17.9767
ltibia 28.201 -0 0
lfoot -13.6435 9.48456 -0.132391
ltoes -12.0907 0 0
rfemur 8.55356 3.68559 27.9883
rtibia 15.6625 -0 0
rfoot -8.72724 5.64916 -0.0675674
rtoes -10.3925 0 0
lowerback -6.33392 2.51183 1.63233
upperback -1.45052 3.16247 2.89348
thorax 1.94265 1.59066 2.30558
lowerneck -16.7534 -6.46235 -14.4031
upperneck 15.4337 -8.21571 15.0705
head 8.84037 -3.32095 6.50693
lclavicle -1.94623e-14 -5.56597e-15 0
lhumerus -49.8227 -7.82205 93.4711
lradius 25.0963 -0 0
lwrist 4.08648 0 0
lhand -11.1821 -23.865 -0.0205432
lfingers 7.12502 -0 0
lthumb 14.8457 5.59259 -0.0164184
rclavicle -1.94623e-14 -5.56597e-15 0
rhumerus -38.4407 10.4921 -82.9472
rradius 49.9604 -0 0
rwrist -26.0402 0 0
rhand -32.2992 -27.277 0.0488384
rfingers 7.12502 -0 0
rthumb -5.53742 -57.179 0.0466958
221
root 8.65721 16.4902 -6.15206 8.42841 -1.64362 -3.97675
lfemur -46.6169 3.72472 -18.1963
ltibia 28.8121 -0 0
lfoot -13.3922 9.30955 -0.138727
ltoes -11.6002 0 0
rfemur 8.95274 3.57439 27.6948
rtibia 16.153 -0 0
rfoot -7.80745 5.72757 -0.0827612
rtoes -10.5372 0 0
lowerback -6.34503 2.53306 1.56299
upperback -1.53204 3.19786 2.84281
thorax 1.86101 1.6088 2.2934
lowerneck -16.8002 -6.44698 -14.3983
upperneck 15.4886 -8.19557 15.0709
head 8.86331 -3.30904 6.51023
lclavicle -1.94623e-14 -5.56597e-15 0
lhumerus -49.8379 -7.61116 93.2351
lradius 24.8506 -0 0
lwrist 3.56519 0 0
lhand -11.0027 -23.8139 -0.0191181
lfingers 7.12502 -0 0
lthumb 15.0184 5.62983 -0.0153462
rclavicle -1.94623e-14 -5.56597e-15 0
rhumerus -38.7679 10.4191 -83.1349
rradius 49.6115 -0 0
rwrist -25.883 0 0
rhand -32.1776 -27.092 0.0520074
rfingers 7.12502 -0 0
rthumb -5.42003 -56.9963 0.0497109
222
root 8.68407 16.4851 -5.98853 8.51841 -1.88211 -3.91594
lfemur -46.7568 4.00386 -18.421
ltibia 29.4479 -0 0
lfoot -13.1293 9.13244 -0.144033
ltoes -11.1002 0 0
rfemur 9.33771 3.46263 27.3915
rtibia 16.6632 -0 0
rfoot -6.87368 5.80281 -0.0991071
rtoes -10.6883 0 0
lowerback -6.35548 2.55201 1.49081
upperback -1.61508 3.23043 2.79133
thorax 1.77754 1.62555 2.2818
lowerneck -16.8495 -6.43139 -14.3933
upperneck 15.5449 -8.17492 15.0707
head 8.88707 -3.29683 6.51335
lclavicle -1.94623e-14 -5.56597e-15 0
lhumerus -49.848 -7.39997 92.9961
lradius 24.6011 -0 0
lwrist 3.03403 0 0
lhand -10.8155 -23.7594 -0.0175981
lfingers 7.12502 -0 0
lthumb 15.1987 5.66975 -0.0141907
rclavicle -1.94623e-14 -5.56597e-15 0
rhumerus -39.1051 10.3429 -83.3251
rradius 49.2477 -0 0
rwrist -25.7192 0 0
rhand -32.0515 -26.9024 0.0548197
rfingers 7.12502 -0 0
rthumb -5.29826 -56.8093 0.0523851
223
root 8.71093 16.4801 -5.825 8.60858 -2.11928 -3.85228
lfemur -46.8776 4.28878 -18.6505
ltibia 30.1045 -0 0
lfoot -12.8566 8.95367 -0.148243
ltoes -10.5925 0 0
rfemur 9.7071 3.35079 27.0794
rtibia 17.1912 -0 0
rfoot -5.92985 5.87421 -0.116427
rtoes -10.8453 0 0
lowerback -6.36525 2.56859 1.41597
upperback -1.69926 3.26004 2.73921
thorax 1.69265 1.64083 2.27084
lowerneck -16.901 -6.41554 -14.3878
upperneck 15.6028 -8.15374 15.0697
head 8.91161 -3.28432 6.51627
lclavicle -1.94623e-14 -5.56597e-15 0
lhumerus -49.8523 -7.18945 92.7549
lradius 24.3487 -0 0
lwrist 2.49512 0 0
lhand -10.6218 -23.7019 -0.0160319
lfingers 7.12502 -0 0
lthumb 15.3852 5.71203 -0.0129886
rclavicle -1.94623e-14 -5.56597e-15 0
rhumerus -39.451 10.2637 -83.517
rradius 48.8708 -0 0
rwrist -25.5495 0 0
rhand -31.9214 -26.7089 0.0572325
rfingers 7.12502 -0 0
rthumb -5.17268 -56.6184 0.0546777
